<?xml version="1.0" encoding="UTF-8"?>
<svg xmlns="http://www.w3.org/2000/svg" viewBox="0 0 800 300">
  <!-- Logo oficial HQ -->
  <g id="hq-logo" transform="translate(40, 50)">
    <g transform="translate(0.000000,200.000000) scale(0.019,-0.019)" fill="#0A192F" stroke="none">
      <path d="M4050 7159 l0 -646 -48 -79 c-26 -43 -69 -127 -96 -185 l-50 -106
      -374 -6 c-207 -4 -512 -7 -679 -7 l-303 0 0 700 c0 783 3 749 -68 770 -23 7
      -106 10 -224 8 -181 -3 -187 -4 -212 -27 l-26 -24 0 -1968 c0 -1082 3 -1975 6
      -1984 15 -38 55 -45 254 -45 208 0 236 6 258 55 9 19 12 206 12 730 l0 705
      618 0 617 0 22 -113 c40 -203 134 -449 239 -627 l54 -92 0 -549 c0 -498 -1
      -549 -16 -549 -9 0 -43 -14 -75 -31 -156 -84 -238 -269 -195 -439 53 -205 219
      -321 429 -300 162 17 290 133 333 300 45 177 -45 368 -211 446 -27 13 -58 24
      -67 24 -17 0 -18 27 -18 420 0 231 2 420 4 420 3 0 51 -46 108 -102 233 -232
      518 -403 840 -506 445 -142 932 -137 1372 15 224 77 500 235 676 387 l75 64
      145 -144 c159 -158 181 -170 237 -135 36 22 49 56 38 98 -4 17 -62 84 -147
      170 l-141 142 72 90 c422 535 567 1226 396 1886 -152 586 -571 1091 -1126
      1359 -375 181 -762 248 -1163 201 -498 -58 -934 -268 -1273 -612 l-113 -114 0
      523 0 523 -90 0 -90 0 0 -646z m-1742 272 c9 -1 12 -148 12 -701 0 -753 -1
      -743 50 -770 14 -7 241 -10 720 -10 385 1 700 -2 700 -7 0 -4 -8 -46 -19 -93
      -35 -148 -51 -295 -52 -453 l0 -154 -442 -6 c-243 -4 -540 -7 -659 -7 -133 0
      -226 -4 -241 -11 -54 -24 -52 2 -57 -769 l-5 -715 -85 0 -85 0 -3 1847 c-2
      1738 -1 1847 15 1850 14 2 106 2 151 -1z m3852 -136 c210 -37 448 -122 635
      -227 343 -192 630 -489 798 -823 93 -187 165 -431 187 -632 16 -143 8 -476
      -14 -592 -47 -253 -135 -476 -279 -706 -54 -87 -160 -227 -176 -233 -7 -2
      -329 320 -345 346 -4 7 14 39 43 77 161 210 257 463 282 744 53 608 -303 1205
      -855 1432 -193 80 -349 109 -575 110 -461 0 -883 -208 -1157 -571 -72 -95
      -181 -305 -218 -421 -50 -157 -61 -232 -61 -434 0 -146 4 -210 18 -275 124
      -582 549 -1009 1130 -1137 116 -25 436 -25 557 0 243 52 465 158 638 305 l54
      45 180 -180 180 -180 -69 -57 c-276 -232 -628 -389 -987 -442 -171 -25 -507
      -15 -676 21 -807 170 -1405 795 -1536 1605 -12 74 -17 163 -17 305 0 174 4
      218 27 338 80 420 270 776 568 1063 300 290 705 482 1123 533 115 14 431 6
      545 -14z m-90 -697 c446 -61 829 -384 978 -824 12 -34 31 -108 42 -165 19 -91
      21 -127 17 -284 -5 -196 -16 -253 -79 -421 -38 -102 -113 -232 -169 -295 l-39
      -44 -352 357 c-241 244 -362 359 -381 364 -33 8 -84 -12 -97 -37 -6 -10 -10
      -34 -10 -54 0 -43 -12 -30 395 -443 171 -173 310 -319 310 -325 0 -17 -132
      -113 -222 -163 -282 -155 -622 -193 -952 -108 -323 84 -619 332 -776 649 -90
      182 -123 312 -131 510 -27 640 439 1199 1071 1284 151 21 242 20 395 -1z
      m-1864 -3653 c53 -15 109 -66 138 -122 32 -64 15 -176 -37 -232 -29 -31 -114
      -71 -152 -71 -93 0 -192 74 -215 160 -31 116 35 236 148 270 41 12 63 11 118
      -5z"/>
    </g>
  </g>
  
  <!-- Logotype -->
  <text x="240" y="165" font-family="'Inter', 'Helvetica Neue', 'Arial', sans-serif" 
        font-size="48" font-weight="300" letter-spacing="4px" fill="#0A192F">
    hyperquantum
  </text>
</svg>