<svg viewBox="0 0 100 100" xmlns="http://www.w3.org/2000/svg">
  <!-- Central Node -->
  <circle cx="50" cy="50" r="6" fill="#00D1FF" />
  
  <!-- Main Nodes and Connections -->
  <!-- 0 degrees -->
  <line x1="50" y1="50" x2="80" y2="50" stroke="#00D1FF" stroke-width="1.5" />
  <circle cx="80" cy="50" r="4" fill="#FFFFFF" />
  
  <!-- 45 degrees -->
  <line x1="50" y1="50" x2="71.21" y2="28.79" stroke="#00D1FF" stroke-width="1.5" />
  <circle cx="71.21" cy="28.79" r="4" fill="#FFFFFF" />
  
  <!-- 90 degrees -->
  <line x1="50" y1="50" x2="50" y2="20" stroke="#00D1FF" stroke-width="1.5" />
  <circle cx="50" cy="20" r="4" fill="#FFFFFF" />
  
  <!-- 135 degrees -->
  <line x1="50" y1="50" x2="28.79" y2="28.79" stroke="#00D1FF" stroke-width="1.5" />
  <circle cx="28.79" cy="28.79" r="4" fill="#FFFFFF" />
  
  <!-- 180 degrees -->
  <line x1="50" y1="50" x2="20" y2="50" stroke="#00D1FF" stroke-width="1.5" />
  <circle cx="20" cy="50" r="4" fill="#FFFFFF" />
  
  <!-- 225 degrees -->
  <line x1="50" y1="50" x2="28.79" y2="71.21" stroke="#00D1FF" stroke-width="1.5" />
  <circle cx="28.79" cy="71.21" r="4" fill="#FFFFFF" />
  
  <!-- 270 degrees -->
  <line x1="50" y1="50" x2="50" y2="80" stroke="#00D1FF" stroke-width="1.5" />
  <circle cx="50" cy="80" r="4" fill="#FFFFFF" />
  
  <!-- 315 degrees -->
  <line x1="50" y1="50" x2="71.21" y2="71.21" stroke="#00D1FF" stroke-width="1.5" />
  <circle cx="71.21" cy="71.21" r="4" fill="#FFFFFF" />
  
  <!-- Small Nodes -->
  <circle cx="60.61" cy="34.55" r="2" fill="#FFFFFF" />
  <circle cx="65.45" cy="60.61" r="2" fill="#FFFFFF" />
  <circle cx="34.55" cy="60.61" r="2" fill="#FFFFFF" />
  <circle cx="34.55" cy="39.39" r="2" fill="#FFFFFF" />
  <circle cx="39.39" cy="34.55" r="2" fill="#FFFFFF" />
  <circle cx="60.61" cy="65.45" r="2" fill="#FFFFFF" />
  <circle cx="65.45" cy="39.39" r="2" fill="#FFFFFF" />
  <circle cx="39.39" cy="65.45" r="2" fill="#FFFFFF" />
</svg>
